# xmcd
#
# Track frame offsets: 
#        150
#        21200
#        32432
#        47907
#        68725
#        91580
#        109387
#        124707
#        140355
#        159327
#        172645
#        196877
#        217250
#
# Disc length: 3108 seconds
#
# Revision: 2
# Processed by: cddbd v1.5.2PL0 Copyright (c) Steve Scherf et al.
# Submitted via: ExactAudioCopy v0.99pb4
#
DISCID=a70c220d
DTITLE=Big Mama - Stir The Pot
DYEAR=2001
DGENRE=Blues
TTITLE0=Stir The Pot
TTITLE1=Big Mama Blues
TTITLE2=Hurry Everybody
TTITLE3=Lying For A Living
TTITLE4=Planet Blue
TTITLE5=I'm Statistic
TTITLE6=Armes Per Gana
TTITLE7=The Frog Croak Boogie
TTITLE8=Nobody Knows When You're Down And Out [Jimmie Cox]
TTITLE9=Blues In A Bottle
TTITLE10=Beat Up Woman
TTITLE11=Believed
TTITLE12=Make Me A Pallet On Your Floor [John Hurt]
EXTD=
EXTT0=
EXTT1=
EXTT2=
EXTT3=
EXTT4=
EXTT5=
EXTT6=
EXTT7=
EXTT8=
EXTT9=
EXTT10=
EXTT11=
EXTT12=
PLAYORDER=
